<?xml version="1.0" standalone="no"?><!DOCTYPE svg PUBLIC "-//W3C//DTD SVG 1.1//EN" "http://www.w3.org/Graphics/SVG/1.1/DTD/svg11.dtd"><svg t="1490166019942" class="icon" style="" viewBox="0 0 1024 1024" version="1.1" xmlns="http://www.w3.org/2000/svg" p-id="2079" xmlns:xlink="http://www.w3.org/1999/xlink" width="200" height="200"><defs><style type="text/css"></style></defs><path d="M441.262936 585.518411c-19.506263 0-40.005133-0.335644-61.509912-1.006933-21.521153-0.671289-42.691311-1.342578-63.524802-2.01489-6.731308-0.671289-11.096732-1.006933-13.110599-1.006933-14.118556 0-24.542976 4.365424-31.258934 13.095249-8.746198 14.133905-17.140379 27.581172-25.198915 40.340777l0 9.081843 148.219763 0c37.638225 0 65.187675 11.096732 82.680071 33.273824 14.102183 18.819624 21.169135 44.018539 21.169135 75.613118l0 63.524802c-6.043646 38.981826-12.43931 64.531735-19.154245 76.636425-16.133446 27.565822-45.37749 41.34771-87.716784 41.34771-71.264067 0-119.66338-2.702552-145.19794-8.074909-49.758264-12.103666-74.621535-36.631292-74.621535-73.598228l0-15.125489c-0.671289-9.417487-1.006933-18.499329-1.006933-27.229155l0-24.207331-1.006933-13.095249c-13.447267 22.864754-23.200398 38.646182-29.244045 47.391357-10.088776 15.445784-22.193465 23.184025-36.295648 23.184025-20.849864 0-31.258934-9.753131-31.258934-29.244045 0-4.02978 1.006933-11.927657 3.021823-23.680329 2.01489-11.768021 8.394181-27.389814 19.155269-46.896076 14.789844-23.51967 25.886577-42.00365 33.273824-55.466266 3.357468-6.043646 18.482957-28.556383 45.37749-67.554582 10.073426-14.102183 16.133446-24.863271 18.147312-32.265868-14.789844 0-26.89351 0-36.295648 0-15.461133 0-26.89351-2.350534-34.280758-7.051603-10.761088-7.387247-16.133446-21.505803-16.133446-42.355667 0-8.058536 6.890944-15.125489 20.673855-21.169135s30.075992-9.081843 48.894593-9.081843c24.207331 1.342578 50.590212 2.862187 79.161944 4.541433 28.556383 1.694595 56.617485 2.526543 84.183308 2.526543 9.402137 0 19.490913 0 30.250978 0 10.744715 0 21.841447-0.335644 33.273824-1.006933 36.295648 0 64.707744 2.190899 85.206614 6.5553 20.497846 4.365424 29.739325 13.605879 27.724435 27.724435-2.01489 15.461133-6.219655 25.886577-12.598946 31.258934-6.395664 5.372358-15.637142 8.058536-27.724435 8.058536-4.716418 0-10.105149-0.335644-16.148795-1.006933S446.635293 586.189699 441.262936 585.518411zM665.111167 163.037237c-13.462616 0-46.400796-1.503237-98.828866-4.541433-52.42807-3.021823-85.701894-4.541433-99.819426-4.541433-6.714935-0.671289-11.432377-1.006933-14.118556-1.006933-13.447267 0-23.51967 4.380774-30.235628 13.110599-9.417487 14.118556-18.163685 27.901467-26.222221 41.332361l0 9.081843 282.319947 0c37.638225 0 64.868403 11.096732 81.688487 33.273824 14.102183 18.163685 21.170159 43.026956 21.170159 74.621535l0 63.524802c-6.731308 45.041846-18.163685 74.957179-34.297131 89.747024S705.435571 499.816516 671.154813 499.816516c-13.447267 0-32.601512 0.335644-57.481156 1.006933s-43.3626 1.006933-55.450916 1.006933c-31.594579 0-61.350277-1.167592-89.23537-3.533476-27.901467-2.350534-60.343343-7.226588-97.31028-14.613836-18.819624-4.02978-31.258934-14.4542-37.302581-31.258934s-9.06547-41.683355-9.06547-74.621535l0-31.258934c-12.791327 17.492396-25.230638 34.297131-37.318954 50.414203-14.789844 16.148795-30.250978 24.207331-46.384423 24.207331-10.088776 0-17.828041-3.181459-23.200398-9.577123-5.372358-6.379291-8.058536-14.278191-8.058536-23.695678 0-10.073426 3.693112-21.170159 11.096732-33.273824 18.147312-28.237111 37.302581-59.496046 57.481156-93.776803 2.686179-6.043646 17.811668-28.572756 45.37749-67.554582 9.402137-14.118556 15.110139-24.87862 17.140379-32.265868-3.373841-0.671289-11.112082-0.49528-23.200398 0.511653-12.103666 1.006933-25.886577 1.838881-41.332361 2.51017-20.849864 0-36.310997-2.686179-46.384423-8.074909-12.774955-7.387247-19.155269-19.810185-19.155269-37.302581 0-13.430894 11.08036-22.336728 33.273824-26.717502 22.177092-4.365424 45.696762-6.5553 70.576405-6.5553l15.125489 0c16.788361 0 44.849464 0 84.183308 0s72.430636 0 99.324146 0l67.554582 0c95.455025 0 160.659073 2.702552 195.61112 8.074909s52.444443 13.782911 52.444443 25.198915c0 18.834974-1.342578 30.252001-4.02978 34.280758-7.402597 10.088776-26.89351 15.125489-58.488089 15.125489L665.111167 163.037237zM422.10869 741.812059c-11.432377-9.402137-29.084409-15.957437-52.939723-19.666922-23.871687-3.693112-50.925856-5.548366-81.176834-5.548366-17.476023 0-28.396747 1.854231-32.762171 5.548366-4.380774 3.709485-6.5553 10.937097-6.5553 21.681812 0.671289 10.088776 1.006933 18.147312 1.006933 24.191982 0 10.761088-0.671289 20.514219-2.01489 29.244045s-2.01489 16.133446-2.01489 22.177092c2.01489 11.432377 3.021823 18.163685 3.021823 20.178575 0 8.729825 9.06547 15.286148 27.213805 19.666922 18.147312 4.349051 34.616402 6.53995 49.422619 6.53995 13.430894 0.671289 23.184025 1.006933 29.227672 1.006933 27.565822 0 45.713134-6.5553 54.459333-19.650549 8.729825-13.126972 13.110599-32.441876 13.110599-57.976436L422.107667 741.812059zM698.383968 302.175157c-6.731308-5.372358-25.886577-9.226129-57.481156-11.592013-31.594579-2.350534-65.875337-3.533476-102.842273-3.533476-18.834974 0-36.807301 0.176009-53.946656 0.511653-17.140379 0.335644-32.777521 0.49528-46.879704 0.49528-16.821107 0-27.405163 1.854231-31.770588 5.548366-4.380774 3.709485-6.5553 11.272741-6.5553 22.688745 0.671289 9.417487 1.006933 17.492396 1.006933 24.207331 0 10.088776-0.847298 19.666922-2.526543 28.732391-1.679245 9.081843-2.51017 16.309454-2.51017 21.681812 2.686179 11.432377 4.02978 18.147312 4.02978 20.162202 0 8.074909 31.258934 13.782911 93.776803 17.140379 17.476023 0.671289 46.048779 1.006933 85.701894 1.006933l43.3626 0c31.594579 0 51.245128-3.357468 58.984393-10.073426 7.722892-6.714935 13.606903-26.557866 17.652032-59.496046 1.342578-16.804734 2.01489-26.557866 2.01489-29.244045C700.398858 320.338842 699.727569 310.921355 698.383968 302.175157zM864.752066 611.740632l-115.952872-6.060019c-6.731308-0.671289-11.096732-1.006933-13.110599-1.006933-14.118556 0-24.542976 4.380774-31.258934 13.110599-8.746198 14.118556-17.140379 27.901467-25.198915 41.332361l0 8.074909 148.219763 0c37.638225 0 65.187675 11.096732 82.680071 33.273824 14.102183 18.834974 21.170159 44.033889 21.170159 75.628468l0 63.524802c-6.043646 38.981826-12.43931 64.516386-19.155269 76.620052-16.148795 28.237111-45.37749 42.355667-87.716784 42.355667-71.264067 0-119.66338-3.021823-145.19794-9.06547-49.758264-12.120039-74.621535-36.646642-74.621535-73.614601L604.609211 860.787778c-0.671289-8.746198-1.006933-17.828041-1.006933-27.229155L603.602278 809.366641l-1.006933-13.110599c-16.148795 30.92329-28.252461 52.092425-36.310997 63.524802-8.058536 11.416004-17.811668 17.140379-29.227672 17.140379-14.133905 0-23.536043-2.030239-28.237111-6.043646-4.701069-4.045129-7.051603-10.088776-7.051603-18.147312 0-4.716418 0.830925-10.440793 2.51017-17.140379 1.679245-6.731308 3.357468-14.965853 5.036713-24.703635 1.679245-9.769504 7.898901-24.366967 18.658965-43.874253 14.789844-23.51967 25.886577-42.00365 33.273824-55.450916 3.357468-5.372358 18.482957-27.901467 45.37749-67.554582 10.073426-14.118556 16.133446-24.87862 18.147312-32.265868-14.789844 0-26.89351 0-36.295648 0-15.477506 0-26.89351-2.350534-34.280758-7.066953-10.761088-7.387247-16.133446-21.505803-16.133446-42.355667 0-8.058536 6.875594-15.110139 20.658506-21.153786 13.782911-6.043646 30.075992-9.081843 48.910966-9.081843 24.191982 1.342578 50.573839 2.862187 79.146595 4.541433s56.633858 2.51017 84.198657 2.51017c9.402137 0 19.490913 0 30.250978 0 10.744715 0 21.841447-0.335644 33.273824-1.006933 36.295648 0 64.707744 2.190899 85.206614 6.5553 20.497846 4.380774 29.739325 13.622252 27.725458 27.725458-2.01489 16.148795-7.563256 27.245528-16.645099 33.289174s-21.0095 9.06547-35.783994 9.06547c-4.716418 0-9.753131 0-15.125489 0C872.473935 612.747565 867.438245 611.740632 864.752066 611.740632zM850.63351 761.974261c-10.761088-9.402137-26.557866-15.461133-47.391357-18.147312-20.849864-2.686179-48.399313-4.045129-82.680071-4.045129-17.492396 0-28.41312 1.854231-32.777521 5.548366-4.365424 3.709485-6.53995 10.937097-6.53995 21.681812 0.671289 10.088776 1.006933 18.499329 1.006933 25.215288 0 10.073426-0.687662 19.490913-2.030239 28.237111-1.342578 8.714476-2.01489 16.117073-2.01489 22.177092 2.01489 11.416004 3.038196 18.147312 3.038196 20.162202 0 8.729825 9.06547 15.286148 27.213805 19.666922 18.147312 4.365424 34.616402 6.5553 49.406247 6.5553 13.447267 0.671289 23.200398 1.006933 29.244045 1.006933 27.565822 0 45.713134-6.5553 54.44296-19.666922s13.110599-32.441876 13.110599-57.976436c0.671289-14.789844 1.006933-23.855314 1.006933-27.229155C855.670224 780.458241 853.990978 772.735349 850.63351 761.974261z" p-id="2080"></path></svg>